<svg width="1170" height="289" viewBox="0 0 1170 289" fill="none" xmlns="http://www.w3.org/2000/svg">
<path opacity="0.1" fill-rule="evenodd" clip-rule="evenodd" d="M0 2.49138V0H0.974188V2.49138H0ZM146.128 2.49138V0H147.102V2.49138H146.128ZM292.256 2.49138V0H293.231V2.49138H292.256ZM438.385 2.49138V0H439.359V2.49138H438.385ZM584.513 2.49138V0H585.487V2.49138H584.513ZM730.641 2.49138V0H731.615V2.49138H730.641ZM876.769 2.49138V0H877.744V2.49138H876.769ZM1022.9 2.49138V0H1023.87V2.49138H1022.9ZM1169.03 2.49138V0H1170V2.49138H1169.03ZM0 12.4569V7.47414H0.974188V12.4569H0ZM146.128 12.4569V7.47414H147.102V12.4569H146.128ZM292.256 12.4569V7.47414H293.231V12.4569H292.256ZM438.385 12.4569V7.47414H439.359V12.4569H438.385ZM584.513 12.4569V7.47414H585.487V12.4569H584.513ZM730.641 12.4569V7.47414H731.615V12.4569H730.641ZM876.769 12.4569V7.47414H877.744V12.4569H876.769ZM1022.9 12.4569V7.47414H1023.87V12.4569H1022.9ZM1169.03 12.4569V7.47414H1170V12.4569H1169.03ZM0 22.4224V17.4397H0.974188V22.4224H0ZM146.128 22.4224V17.4397H147.102V22.4224H146.128ZM292.256 22.4224V17.4397H293.231V22.4224H292.256ZM438.385 22.4224V17.4397H439.359V22.4224H438.385ZM584.513 22.4224V17.4397H585.487V22.4224H584.513ZM730.641 22.4224V17.4397H731.615V22.4224H730.641ZM876.769 22.4224V17.4397H877.744V22.4224H876.769ZM1022.9 22.4224V17.4397H1023.87V22.4224H1022.9ZM1169.03 22.4224V17.4397H1170V22.4224H1169.03ZM0 32.3879V27.4052H0.974188V32.3879H0ZM146.128 32.3879V27.4052H147.102V32.3879H146.128ZM292.256 32.3879V27.4052H293.231V32.3879H292.256ZM438.385 32.3879V27.4052H439.359V32.3879H438.385ZM584.513 32.3879V27.4052H585.487V32.3879H584.513ZM730.641 32.3879V27.4052H731.615V32.3879H730.641ZM876.769 32.3879V27.4052H877.744V32.3879H876.769ZM1022.9 32.3879V27.4052H1023.87V32.3879H1022.9ZM1169.03 32.3879V27.4052H1170V32.3879H1169.03ZM0 42.3534V37.3707H0.974188V42.3534H0ZM146.128 42.3534V37.3707H147.102V42.3534H146.128ZM292.256 42.3534V37.3707H293.231V42.3534H292.256ZM438.385 42.3534V37.3707H439.359V42.3534H438.385ZM584.513 42.3534V37.3707H585.487V42.3534H584.513ZM730.641 42.3534V37.3707H731.615V42.3534H730.641ZM876.769 42.3534V37.3707H877.744V42.3534H876.769ZM1022.9 42.3534V37.3707H1023.87V42.3534H1022.9ZM1169.03 42.3534V37.3707H1170V42.3534H1169.03ZM0 52.319V47.3362H0.974188V52.319H0ZM146.128 52.319V47.3362H147.102V52.319H146.128ZM292.256 52.319V47.3362H293.231V52.319H292.256ZM438.385 52.319V47.3362H439.359V52.319H438.385ZM584.513 52.319V47.3362H585.487V52.319H584.513ZM730.641 52.319V47.3362H731.615V52.319H730.641ZM876.769 52.319V47.3362H877.744V52.319H876.769ZM1022.9 52.319V47.3362H1023.87V52.319H1022.9ZM1169.03 52.319V47.3362H1170V52.319H1169.03ZM0 62.2845V57.3017H0.974188V62.2845H0ZM146.128 62.2845V57.3017H147.102V62.2845H146.128ZM292.256 62.2845V57.3017H293.231V62.2845H292.256ZM438.385 62.2845V57.3017H439.359V62.2845H438.385ZM584.513 62.2845V57.3017H585.487V62.2845H584.513ZM730.641 62.2845V57.3017H731.615V62.2845H730.641ZM876.769 62.2845V57.3017H877.744V62.2845H876.769ZM1022.9 62.2845V57.3017H1023.87V62.2845H1022.9ZM1169.03 62.2845V57.3017H1170V62.2845H1169.03ZM0 72.25V67.2672H0.974188V72.25H0ZM146.128 72.25V67.2672H147.102V72.25H146.128ZM292.256 72.25V67.2672H293.231V72.25H292.256ZM438.385 72.25V67.2672H439.359V72.25H438.385ZM584.513 72.25V67.2672H585.487V72.25H584.513ZM730.641 72.25V67.2672H731.615V72.25H730.641ZM876.769 72.25V67.2672H877.744V72.25H876.769ZM1022.9 72.25V67.2672H1023.87V72.25H1022.9ZM1169.03 72.25V67.2672H1170V72.25H1169.03ZM0 82.2155V77.2328H0.974188V82.2155H0ZM146.128 82.2155V77.2328H147.102V82.2155H146.128ZM292.256 82.2155V77.2328H293.231V82.2155H292.256ZM438.385 82.2155V77.2328H439.359V82.2155H438.385ZM584.513 82.2155V77.2328H585.487V82.2155H584.513ZM730.641 82.2155V77.2328H731.615V82.2155H730.641ZM876.769 82.2155V77.2328H877.744V82.2155H876.769ZM1022.9 82.2155V77.2328H1023.87V82.2155H1022.9ZM1169.03 82.2155V77.2328H1170V82.2155H1169.03ZM0 92.181V87.1983H0.974188V92.181H0ZM146.128 92.181V87.1983H147.102V92.181H146.128ZM292.256 92.181V87.1983H293.231V92.181H292.256ZM438.385 92.181V87.1983H439.359V92.181H438.385ZM584.513 92.181V87.1983H585.487V92.181H584.513ZM730.641 92.181V87.1983H731.615V92.181H730.641ZM876.769 92.181V87.1983H877.744V92.181H876.769ZM1022.9 92.181V87.1983H1023.87V92.181H1022.9ZM1169.03 92.181V87.1983H1170V92.181H1169.03ZM0 102.147V97.1638H0.974188V102.147H0ZM146.128 102.147V97.1638H147.102V102.147H146.128ZM292.256 102.147V97.1638H293.231V102.147H292.256ZM438.385 102.147V97.1638H439.359V102.147H438.385ZM584.513 102.147V97.1638H585.487V102.147H584.513ZM730.641 102.147V97.1638H731.615V102.147H730.641ZM876.769 102.147V97.1638H877.744V102.147H876.769ZM1022.9 102.147V97.1638H1023.87V102.147H1022.9ZM1169.03 102.147V97.1638H1170V102.147H1169.03ZM0 112.112V107.129H0.974188V112.112H0ZM146.128 112.112V107.129H147.102V112.112H146.128ZM292.256 112.112V107.129H293.231V112.112H292.256ZM438.385 112.112V107.129H439.359V112.112H438.385ZM584.513 112.112V107.129H585.487V112.112H584.513ZM730.641 112.112V107.129H731.615V112.112H730.641ZM876.769 112.112V107.129H877.744V112.112H876.769ZM1022.9 112.112V107.129H1023.87V112.112H1022.9ZM1169.03 112.112V107.129H1170V112.112H1169.03ZM0 122.078V117.095H0.974188V122.078H0ZM146.128 122.078V117.095H147.102V122.078H146.128ZM292.256 122.078V117.095H293.231V122.078H292.256ZM438.385 122.078V117.095H439.359V122.078H438.385ZM584.513 122.078V117.095H585.487V122.078H584.513ZM730.641 122.078V117.095H731.615V122.078H730.641ZM876.769 122.078V117.095H877.744V122.078H876.769ZM1022.9 122.078V117.095H1023.87V122.078H1022.9ZM1169.03 122.078V117.095H1170V122.078H1169.03ZM0 132.043V127.06H0.974188V132.043H0ZM146.128 132.043V127.06H147.102V132.043H146.128ZM292.256 132.043V127.06H293.231V132.043H292.256ZM438.385 132.043V127.06H439.359V132.043H438.385ZM584.513 132.043V127.06H585.487V132.043H584.513ZM730.641 132.043V127.06H731.615V132.043H730.641ZM876.769 132.043V127.06H877.744V132.043H876.769ZM1022.9 132.043V127.06H1023.87V132.043H1022.9ZM1169.03 132.043V127.06H1170V132.043H1169.03ZM0 142.009V137.026H0.974188V142.009H0ZM146.128 142.009V137.026H147.102V142.009H146.128ZM292.256 142.009V137.026H293.231V142.009H292.256ZM438.385 142.009V137.026H439.359V142.009H438.385ZM584.513 142.009V137.026H585.487V142.009H584.513ZM730.641 142.009V137.026H731.615V142.009H730.641ZM876.769 142.009V137.026H877.744V142.009H876.769ZM1022.9 142.009V137.026H1023.87V142.009H1022.9ZM1169.03 142.009V137.026H1170V142.009H1169.03ZM0 151.974V146.991H0.974188V151.974H0ZM146.128 151.974V146.991H147.102V151.974H146.128ZM292.256 151.974V146.991H293.231V151.974H292.256ZM438.385 151.974V146.991H439.359V151.974H438.385ZM584.513 151.974V146.991H585.487V151.974H584.513ZM730.641 151.974V146.991H731.615V151.974H730.641ZM876.769 151.974V146.991H877.744V151.974H876.769ZM1022.9 151.974V146.991H1023.87V151.974H1022.9ZM1169.03 151.974V146.991H1170V151.974H1169.03ZM0 161.94V156.957H0.974188V161.94H0ZM146.128 161.94V156.957H147.102V161.94H146.128ZM292.256 161.94V156.957H293.231V161.94H292.256ZM438.385 161.94V156.957H439.359V161.94H438.385ZM584.513 161.94V156.957H585.487V161.94H584.513ZM730.641 161.94V156.957H731.615V161.94H730.641ZM876.769 161.94V156.957H877.744V161.94H876.769ZM1022.9 161.94V156.957H1023.87V161.94H1022.9ZM1169.03 161.94V156.957H1170V161.94H1169.03ZM0 171.905V166.922H0.974188V171.905H0ZM146.128 171.905V166.922H147.102V171.905H146.128ZM292.256 171.905V166.922H293.231V171.905H292.256ZM438.385 171.905V166.922H439.359V171.905H438.385ZM584.513 171.905V166.922H585.487V171.905H584.513ZM730.641 171.905V166.922H731.615V171.905H730.641ZM876.769 171.905V166.922H877.744V171.905H876.769ZM1022.9 171.905V166.922H1023.87V171.905H1022.9ZM1169.03 171.905V166.922H1170V171.905H1169.03ZM0 181.871V176.888H0.974188V181.871H0ZM146.128 181.871V176.888H147.102V181.871H146.128ZM292.256 181.871V176.888H293.231V181.871H292.256ZM438.385 181.871V176.888H439.359V181.871H438.385ZM584.513 181.871V176.888H585.487V181.871H584.513ZM730.641 181.871V176.888H731.615V181.871H730.641ZM876.769 181.871V176.888H877.744V181.871H876.769ZM1022.9 181.871V176.888H1023.87V181.871H1022.9ZM1169.03 181.871V176.888H1170V181.871H1169.03ZM0 191.836V186.853H0.974188V191.836H0ZM146.128 191.836V186.853H147.102V191.836H146.128ZM292.256 191.836V186.853H293.231V191.836H292.256ZM438.385 191.836V186.853H439.359V191.836H438.385ZM584.513 191.836V186.853H585.487V191.836H584.513ZM730.641 191.836V186.853H731.615V191.836H730.641ZM876.769 191.836V186.853H877.744V191.836H876.769ZM1022.9 191.836V186.853H1023.87V191.836H1022.9ZM1169.03 191.836V186.853H1170V191.836H1169.03ZM0 201.802V196.819H0.974188V201.802H0ZM146.128 201.802V196.819H147.102V201.802H146.128ZM292.256 201.802V196.819H293.231V201.802H292.256ZM438.385 201.802V196.819H439.359V201.802H438.385ZM584.513 201.802V196.819H585.487V201.802H584.513ZM730.641 201.802V196.819H731.615V201.802H730.641ZM876.769 201.802V196.819H877.744V201.802H876.769ZM1022.9 201.802V196.819H1023.87V201.802H1022.9ZM1169.03 201.802V196.819H1170V201.802H1169.03ZM0 211.767V206.784H0.974188V211.767H0ZM146.128 211.767V206.784H147.102V211.767H146.128ZM292.256 211.767V206.784H293.231V211.767H292.256ZM438.385 211.767V206.784H439.359V211.767H438.385ZM584.513 211.767V206.784H585.487V211.767H584.513ZM730.641 211.767V206.784H731.615V211.767H730.641ZM876.769 211.767V206.784H877.744V211.767H876.769ZM1022.9 211.767V206.784H1023.87V211.767H1022.9ZM1169.03 211.767V206.784H1170V211.767H1169.03ZM0 221.733V216.75H0.974188V221.733H0ZM146.128 221.733V216.75H147.102V221.733H146.128ZM292.256 221.733V216.75H293.231V221.733H292.256ZM438.385 221.733V216.75H439.359V221.733H438.385ZM584.513 221.733V216.75H585.487V221.733H584.513ZM730.641 221.733V216.75H731.615V221.733H730.641ZM876.769 221.733V216.75H877.744V221.733H876.769ZM1022.9 221.733V216.75H1023.87V221.733H1022.9ZM1169.03 221.733V216.75H1170V221.733H1169.03ZM0 231.698V226.715H0.974188V231.698H0ZM146.128 231.698V226.715H147.102V231.698H146.128ZM292.256 231.698V226.715H293.231V231.698H292.256ZM438.385 231.698V226.715H439.359V231.698H438.385ZM584.513 231.698V226.715H585.487V231.698H584.513ZM730.641 231.698V226.715H731.615V231.698H730.641ZM876.769 231.698V226.715H877.744V231.698H876.769ZM1022.9 231.698V226.715H1023.87V231.698H1022.9ZM1169.03 231.698V226.715H1170V231.698H1169.03ZM0 241.664V236.681H0.974188V241.664H0ZM146.128 241.664V236.681H147.102V241.664H146.128ZM292.256 241.664V236.681H293.231V241.664H292.256ZM438.385 241.664V236.681H439.359V241.664H438.385ZM584.513 241.664V236.681H585.487V241.664H584.513ZM730.641 241.664V236.681H731.615V241.664H730.641ZM876.769 241.664V236.681H877.744V241.664H876.769ZM1022.9 241.664V236.681H1023.87V241.664H1022.9ZM1169.03 241.664V236.681H1170V241.664H1169.03ZM0 251.629V246.647H0.974188V251.629H0ZM146.128 251.629V246.647H147.102V251.629H146.128ZM292.256 251.629V246.647H293.231V251.629H292.256ZM438.385 251.629V246.647H439.359V251.629H438.385ZM584.513 251.629V246.647H585.487V251.629H584.513ZM730.641 251.629V246.647H731.615V251.629H730.641ZM876.769 251.629V246.647H877.744V251.629H876.769ZM1022.9 251.629V246.647H1023.87V251.629H1022.9ZM1169.03 251.629V246.647H1170V251.629H1169.03ZM0 261.595V256.612H0.974188V261.595H0ZM146.128 261.595V256.612H147.102V261.595H146.128ZM292.256 261.595V256.612H293.231V261.595H292.256ZM438.385 261.595V256.612H439.359V261.595H438.385ZM584.513 261.595V256.612H585.487V261.595H584.513ZM730.641 261.595V256.612H731.615V261.595H730.641ZM876.769 261.595V256.612H877.744V261.595H876.769ZM1022.9 261.595V256.612H1023.87V261.595H1022.9ZM1169.03 261.595V256.612H1170V261.595H1169.03ZM0 271.56V266.578H0.974188V271.56H0ZM146.128 271.56V266.578H147.102V271.56H146.128ZM292.256 271.56V266.578H293.231V271.56H292.256ZM438.385 271.56V266.578H439.359V271.56H438.385ZM584.513 271.56V266.578H585.487V271.56H584.513ZM730.641 271.56V266.578H731.615V271.56H730.641ZM876.769 271.56V266.578H877.744V271.56H876.769ZM1022.9 271.56V266.578H1023.87V271.56H1022.9ZM1169.03 271.56V266.578H1170V271.56H1169.03ZM0 281.526V276.543H0.974188V281.526H0ZM146.128 281.526V276.543H147.102V281.526H146.128ZM292.256 281.526V276.543H293.231V281.526H292.256ZM438.385 281.526V276.543H439.359V281.526H438.385ZM584.513 281.526V276.543H585.487V281.526H584.513ZM730.641 281.526V276.543H731.615V281.526H730.641ZM876.769 281.526V276.543H877.744V281.526H876.769ZM1022.9 281.526V276.543H1023.87V281.526H1022.9ZM1169.03 281.526V276.543H1170V281.526H1169.03ZM0 289V286.509H0.974188V289H0ZM146.128 289V286.509H147.102V289H146.128ZM292.256 289V286.509H293.231V289H292.256ZM438.385 289V286.509H439.359V289H438.385ZM584.513 289V286.509H585.487V289H584.513ZM730.641 289V286.509H731.615V289H730.641ZM876.769 289V286.509H877.744V289H876.769ZM1022.9 289V286.509H1023.87V289H1022.9ZM1169.03 289V286.509H1170V289H1169.03Z" fill="#fff"/>
</svg>
